<mxfile host="app.diagrams.net" modified="2024-06-03T07:47:39.281Z" agent="Mozilla/5.0 (Macintosh; Intel Mac OS X 10_15_7) AppleWebKit/537.36 (KHTML, like Gecko) Chrome/122.0.0.0 YaBrowser/24.4.0.0 Safari/537.36" version="24.4.10" etag="85jzEda5naQHL3b67b_o" type="github">
  <diagram name="Страница — 1" id="lQwmHzD4cR54EKO6_2wm">
    <mxGraphModel>
      <root>
        <mxCell id="0" />
        <mxCell id="1" parent="0" />
      </root>
    </mxGraphModel>
  </diagram>
</mxfile>
